<?xml version="1.0" encoding="UTF-8" standalone="no"?>
<!DOCTYPE svg PUBLIC "-//W3C//DTD SVG 1.1//EN"
 "http://www.w3.org/Graphics/SVG/1.1/DTD/svg11.dtd">
<!-- Generated by graphviz version 14.1.4 (20260321.0153)
 -->
<!-- Title: barko_ml_architecture Pages: 1 -->
<svg width="1800pt" height="1120pt"
 viewBox="0.00 0.00 1800.00 1120.00" xmlns="http://www.w3.org/2000/svg" xmlns:xlink="http://www.w3.org/1999/xlink">
<g id="graph0" class="graph" transform="scale(0.935267 0.935267) rotate(0) translate(62.29 1158.13)">
<title>barko_ml_architecture</title>
<text xml:space="preserve" text-anchor="middle" x="900" y="-1086.25" font-family="Helvetica,sans-Serif" font-weight="bold" font-size="30.00" fill="#0f172a">ML&#45;архитектура BARKO: персональный план + LLM/RAG чат</text>
<!-- mobile&#45;&gt;mobile_server -->
<g id="edge1" class="edge">
<title>mobile&#45;&gt;mobile_server</title>
<path fill="none" stroke="#64748b" stroke-width="1.5" d="M306.85,-998.99C306.85,-998.99 503.46,-998.99 503.46,-998.99"/>
<polygon fill="#64748b" stroke="#64748b" stroke-width="1.5" points="503.46,-1001.44 510.46,-998.99 503.46,-996.54 503.46,-1001.44"/>
<text xml:space="preserve" text-anchor="middle" x="367.28" y="-986.64" font-family="Helvetica,sans-Serif" font-size="13.00" fill="#475569">анкета / чат</text>
</g>
<!-- web&#45;&gt;web_server -->
<g id="edge2" class="edge">
<title>web&#45;&gt;web_server</title>
<path fill="none" stroke="#64748b" stroke-width="1.5" d="M272.72,-733.24C272.72,-733.24 541.54,-733.24 541.54,-733.24"/>
<polygon fill="#64748b" stroke="#64748b" stroke-width="1.5" points="541.54,-735.69 548.54,-733.24 541.54,-730.79 541.54,-735.69"/>
<text xml:space="preserve" text-anchor="middle" x="380.13" y="-720.89" font-family="Helvetica,sans-Serif" font-size="13.00" fill="#475569">админка</text>
</g>
<!-- mobile_server&#45;&gt;api -->
<g id="edge3" class="edge">
<title>mobile_server&#45;&gt;api</title>
<path fill="none" stroke="#64748b" stroke-width="1.5" d="M840,-970.81C840,-857.43 840,-595.92 840,-595.92 840,-595.92 776.78,-595.92 776.78,-595.92"/>
<polygon fill="#64748b" stroke="#64748b" stroke-width="1.5" points="776.78,-593.47 769.78,-595.92 776.78,-598.37 776.78,-593.47"/>
<text xml:space="preserve" text-anchor="middle" x="850.88" y="-739.41" font-family="Helvetica,sans-Serif" font-size="13.00" fill="#475569">API</text>
</g>
<!-- web_server&#45;&gt;api -->
<g id="edge4" class="edge">
<title>web_server&#45;&gt;api</title>
<path fill="none" stroke="#64748b" stroke-width="1.5" d="M686,-681.63C686,-681.63 686,-622.08 686,-622.08"/>
<polygon fill="#64748b" stroke="#64748b" stroke-width="1.5" points="688.45,-622.08 686,-615.08 683.55,-622.08 688.45,-622.08"/>
<text xml:space="preserve" text-anchor="middle" x="675.12" y="-639.51" font-family="Helvetica,sans-Serif" font-size="13.00" fill="#475569">API</text>
</g>
<!-- api&#45;&gt;adaptation_plan -->
<g id="edge5" class="edge">
<title>api&#45;&gt;adaptation_plan</title>
<path fill="none" stroke="#64748b" stroke-width="1.5" d="M767.85,-515.44C907.05,-515.44 1175,-515.44 1175,-515.44 1175,-515.44 1175,-470.43 1175,-470.43"/>
<polygon fill="#64748b" stroke="#64748b" stroke-width="1.5" points="1177.45,-470.43 1175,-463.43 1172.55,-470.43 1177.45,-470.43"/>
<text xml:space="preserve" text-anchor="middle" x="966.55" y="-503.09" font-family="Helvetica,sans-Serif" font-size="13.00" fill="#475569">профиль</text>
</g>
<!-- api&#45;&gt;chatbot -->
<g id="edge8" class="edge">
<title>api&#45;&gt;chatbot</title>
<path fill="none" stroke="#64748b" stroke-width="1.5" d="M767.85,-547.56C767.85,-547.56 1053.81,-547.56 1053.81,-547.56"/>
<polygon fill="#64748b" stroke="#64748b" stroke-width="1.5" points="1053.81,-550.01 1060.81,-547.56 1053.81,-545.11 1053.81,-550.01"/>
<text xml:space="preserve" text-anchor="middle" x="853.46" y="-535.21" font-family="Helvetica,sans-Serif" font-size="13.00" fill="#475569">вопрос + контекст</text>
</g>
<!-- adaptation_plan&#45;&gt;db -->
<g id="edge6" class="edge">
<title>adaptation_plan&#45;&gt;db</title>
<path fill="none" stroke="#64748b" stroke-width="1.5" d="M1290.29,-420.17C1379.17,-420.17 1487,-420.17 1487,-420.17 1487,-420.17 1487,-719.09 1487,-719.09 1487,-719.09 1521.72,-719.09 1521.72,-719.09"/>
<polygon fill="#64748b" stroke="#64748b" stroke-width="1.5" points="1521.72,-721.54 1528.72,-719.09 1521.72,-716.64 1521.72,-721.54"/>
<text xml:space="preserve" text-anchor="middle" x="1436.38" y="-476.28" font-family="Helvetica,sans-Serif" font-size="13.00" fill="#475569">план + прогресс</text>
</g>
<!-- adaptation_plan&#45;&gt;metrics -->
<g id="edge14" class="edge">
<title>adaptation_plan&#45;&gt;metrics</title>
<path fill="none" stroke="#64748b" stroke-width="1.5" d="M1289.98,-386.3C1380.33,-386.3 1491,-386.3 1491,-386.3 1491,-386.3 1491,-563.3 1491,-563.3 1491,-563.3 1495.32,-563.3 1495.32,-563.3"/>
<polygon fill="#64748b" stroke="#64748b" stroke-width="1.5" points="1495.32,-565.75 1502.32,-563.3 1495.32,-560.85 1495.32,-565.75"/>
<text xml:space="preserve" text-anchor="middle" x="1458.65" y="-373.95" font-family="Helvetica,sans-Serif" font-size="13.00" fill="#475569">ML logs</text>
</g>
<!-- chatbot&#45;&gt;api -->
<g id="edge9" class="edge">
<title>chatbot&#45;&gt;api</title>
<path fill="none" stroke="#64748b" stroke-width="1.5" d="M1063.12,-563.68C1063.12,-563.68 776.91,-563.68 776.91,-563.68"/>
<polygon fill="#64748b" stroke="#64748b" stroke-width="1.5" points="776.91,-561.23 769.91,-563.68 776.91,-566.13 776.91,-561.23"/>
<text xml:space="preserve" text-anchor="middle" x="902.39" y="-551.33" font-family="Helvetica,sans-Serif" font-size="13.00" fill="#475569">ответ</text>
</g>
<!-- chatbot&#45;&gt;db -->
<g id="edge10" class="edge">
<title>chatbot&#45;&gt;db</title>
<path fill="none" stroke="#64748b" stroke-width="1.5" d="M1175,-633.7C1175,-679.98 1175,-740.74 1175,-740.74 1175,-740.74 1521.74,-740.74 1521.74,-740.74"/>
<polygon fill="#64748b" stroke="#64748b" stroke-width="1.5" points="1521.74,-743.19 1528.74,-740.74 1521.74,-738.29 1521.74,-743.19"/>
<text xml:space="preserve" text-anchor="middle" x="1269.35" y="-728.39" font-family="Helvetica,sans-Serif" font-size="13.00" fill="#475569">история</text>
</g>
<!-- chatbot&#45;&gt;metrics -->
<g id="edge15" class="edge">
<title>chatbot&#45;&gt;metrics</title>
<path fill="none" stroke="#64748b" stroke-width="1.5" d="M1286.79,-595.17C1286.79,-595.17 1495.05,-595.17 1495.05,-595.17"/>
<polygon fill="#64748b" stroke="#64748b" stroke-width="1.5" points="1495.05,-597.62 1502.05,-595.17 1495.05,-592.72 1495.05,-597.62"/>
<text xml:space="preserve" text-anchor="middle" x="1347.79" y="-582.82" font-family="Helvetica,sans-Serif" font-size="13.00" fill="#475569">LLM/RAG logs</text>
</g>
<!-- db&#45;&gt;mobile -->
<g id="edge7" class="edge">
<title>db&#45;&gt;mobile</title>
<path fill="none" stroke="#64748b" stroke-width="1.5" d="M1531.06,-791.54C1235.68,-791.54 289,-791.54 289,-791.54 289,-791.54 289,-900.13 289,-900.13"/>
<polygon fill="#64748b" stroke="#64748b" stroke-width="1.5" points="286.55,-900.13 289,-907.13 291.45,-900.13 286.55,-900.13"/>
<text xml:space="preserve" text-anchor="middle" x="890.98" y="-779.19" font-family="Helvetica,sans-Serif" font-size="13.00" fill="#475569">план / push</text>
</g>
<!-- db&#45;&gt;api -->
<g id="edge13" class="edge">
<title>db&#45;&gt;api</title>
<path fill="none" stroke="#64748b" stroke-width="1.5" stroke-dasharray="5,2" d="M1530.96,-762.39C1352.13,-762.39 960,-762.39 960,-762.39 960,-762.39 960,-579.8 960,-579.8 960,-579.8 777.11,-579.8 777.11,-579.8"/>
<polygon fill="#64748b" stroke="#64748b" stroke-width="1.5" points="777.11,-577.35 770.11,-579.8 777.11,-582.25 777.11,-577.35"/>
<text xml:space="preserve" text-anchor="middle" x="1034.62" y="-750.04" font-family="Helvetica,sans-Serif" font-size="13.00" fill="#475569">контекст</text>
</g>
<!-- model_store&#45;&gt;adaptation_plan -->
<g id="edge12" class="edge">
<title>model_store&#45;&gt;adaptation_plan</title>
<path fill="none" stroke="#64748b" stroke-width="1.5" stroke-dasharray="5,2" d="M1578,-281.63C1578,-313.41 1578,-348.19 1578,-348.19 1578,-348.19 1299.48,-348.19 1299.48,-348.19"/>
<polygon fill="#64748b" stroke="#64748b" stroke-width="1.5" points="1299.48,-345.74 1292.48,-348.19 1299.48,-350.64 1299.48,-345.74"/>
<text xml:space="preserve" text-anchor="middle" x="1449.9" y="-335.84" font-family="Helvetica,sans-Serif" font-size="13.00" fill="#475569">params</text>
</g>
<!-- data&#45;&gt;model_store -->
<g id="edge11" class="edge">
<title>data&#45;&gt;model_store</title>
<path fill="none" stroke="#64748b" stroke-width="1.5" stroke-dasharray="5,2" d="M1658,-351.8C1658,-351.8 1658,-291.05 1658,-291.05"/>
<polygon fill="#64748b" stroke="#64748b" stroke-width="1.5" points="1660.45,-291.05 1658,-284.05 1655.55,-291.05 1660.45,-291.05"/>
<text xml:space="preserve" text-anchor="middle" x="1620.5" y="-309.07" font-family="Helvetica,sans-Serif" font-size="13.00" fill="#475569">train / export</text>
</g>
<!-- metrics&#45;&gt;incidents -->
<g id="edge16" class="edge">
<title>metrics&#45;&gt;incidents</title>
<path fill="none" stroke="#64748b" stroke-width="1.5" d="M1731.6,-576.24C1742.16,-576.24 1749,-576.24 1749,-576.24 1749,-576.24 1749,-118.17 1749,-118.17"/>
<polygon fill="#64748b" stroke="#64748b" stroke-width="1.5" points="1751.45,-118.17 1749,-111.17 1746.55,-118.17 1751.45,-118.17"/>
<text xml:space="preserve" text-anchor="middle" x="1765.5" y="-343.55" font-family="Helvetica,sans-Serif" font-size="13.00" fill="#475569">alerts</text>
</g>
<!-- incidents&#45;&gt;api -->
<g id="edge17" class="edge">
<title>incidents&#45;&gt;api</title>
<path fill="none" stroke="#64748b" stroke-width="1.5" stroke-dasharray="5,2" d="M1484,-108.58C1484,-229.18 1484,-520.44 1484,-520.44 1484,-520.44 776.92,-520.44 776.92,-520.44"/>
<polygon fill="#64748b" stroke="#64748b" stroke-width="1.5" points="776.92,-517.99 769.92,-520.44 776.92,-522.89 776.92,-517.99"/>
<text xml:space="preserve" text-anchor="middle" x="1304.51" y="-508.09" font-family="Helvetica,sans-Serif" font-size="13.00" fill="#475569">fix backlog</text>
</g>
<!-- mobile -->
<g id="node1" class="node">
<title>mobile</title>
<path fill="#dbeafe" stroke="#60a5fa" stroke-width="1.8" d="M294.03,-1026.54C294.03,-1026.54 53.97,-1026.54 53.97,-1026.54 47.97,-1026.54 41.97,-1020.54 41.97,-1014.54 41.97,-1014.54 41.97,-921.94 41.97,-921.94 41.97,-915.94 47.97,-909.94 53.97,-909.94 53.97,-909.94 294.03,-909.94 294.03,-909.94 300.03,-909.94 306.03,-915.94 306.03,-921.94 306.03,-921.94 306.03,-1014.54 306.03,-1014.54 306.03,-1020.54 300.03,-1026.54 294.03,-1026.54"/>
<text xml:space="preserve" text-anchor="start" x="59.25" y="-997.74" font-family="Helvetica,sans-Serif" font-size="20.00">Мобильное приложение</text>
<text xml:space="preserve" text-anchor="start" x="59.25" y="-982.49" font-family="Helvetica,sans-Serif" font-size="15.00"> </text>
<text xml:space="preserve" text-anchor="start" x="59.25" y="-967.49" font-family="Helvetica,sans-Serif" font-size="15.00">• анкета</text>
<text xml:space="preserve" text-anchor="start" x="59.25" y="-952.49" font-family="Helvetica,sans-Serif" font-size="15.00">• план</text>
<text xml:space="preserve" text-anchor="start" x="59.25" y="-937.49" font-family="Helvetica,sans-Serif" font-size="15.00">• чат</text>
<text xml:space="preserve" text-anchor="start" x="101.62" y="-922.49" font-family="Helvetica,sans-Serif" font-size="15.00">• push&#45;уведомления </text>
</g>
<!-- web -->
<g id="node2" class="node">
<title>web</title>
<path fill="#e0f2fe" stroke="#38bdf8" stroke-width="1.8" d="M259.9,-784.04C259.9,-784.04 88.09,-784.04 88.09,-784.04 82.09,-784.04 76.09,-778.04 76.09,-772.04 76.09,-772.04 76.09,-694.44 76.09,-694.44 76.09,-688.44 82.09,-682.44 88.09,-682.44 88.09,-682.44 259.9,-682.44 259.9,-682.44 265.9,-682.44 271.9,-688.44 271.9,-694.44 271.9,-694.44 271.9,-772.04 271.9,-772.04 271.9,-778.04 265.9,-784.04 259.9,-784.04"/>
<text xml:space="preserve" text-anchor="start" x="93.38" y="-755.24" font-family="Helvetica,sans-Serif" font-size="20.00">Веб&#45;приложение</text>
<text xml:space="preserve" text-anchor="start" x="93.38" y="-739.99" font-family="Helvetica,sans-Serif" font-size="15.00"> </text>
<text xml:space="preserve" text-anchor="start" x="93.38" y="-724.99" font-family="Helvetica,sans-Serif" font-size="15.00">• админка</text>
<text xml:space="preserve" text-anchor="start" x="93.38" y="-709.99" font-family="Helvetica,sans-Serif" font-size="15.00">• отчеты</text>
<text xml:space="preserve" text-anchor="start" x="99" y="-694.99" font-family="Helvetica,sans-Serif" font-size="15.00">• экспертный контур </text>
</g>
<!-- mobile_server -->
<g id="node3" class="node">
<title>mobile_server</title>
<path fill="#d1fae5" stroke="#34d399" stroke-width="1.8" d="M846.53,-1073.04C846.53,-1073.04 525.47,-1073.04 525.47,-1073.04 519.47,-1073.04 513.47,-1067.04 513.47,-1061.04 513.47,-1061.04 513.47,-983.44 513.47,-983.44 513.47,-977.44 519.47,-971.44 525.47,-971.44 525.47,-971.44 846.53,-971.44 846.53,-971.44 852.53,-971.44 858.53,-977.44 858.53,-983.44 858.53,-983.44 858.53,-1061.04 858.53,-1061.04 858.53,-1067.04 852.53,-1073.04 846.53,-1073.04"/>
<text xml:space="preserve" text-anchor="start" x="530.75" y="-1044.24" font-family="Helvetica,sans-Serif" font-size="20.00">Сервер мобильного приложения</text>
<text xml:space="preserve" text-anchor="start" x="530.75" y="-1028.99" font-family="Helvetica,sans-Serif" font-size="15.00"> </text>
<text xml:space="preserve" text-anchor="start" x="530.75" y="-1013.99" font-family="Helvetica,sans-Serif" font-size="15.00">• mobile API</text>
<text xml:space="preserve" text-anchor="start" x="530.75" y="-998.99" font-family="Helvetica,sans-Serif" font-size="15.00">• сессия</text>
<text xml:space="preserve" text-anchor="start" x="616.62" y="-983.99" font-family="Helvetica,sans-Serif" font-size="15.00">• контекст запроса </text>
</g>
<!-- web_server -->
<g id="node4" class="node">
<title>web_server</title>
<path fill="#dcfce7" stroke="#22c55e" stroke-width="1.8" d="M808.65,-784.04C808.65,-784.04 563.35,-784.04 563.35,-784.04 557.35,-784.04 551.35,-778.04 551.35,-772.04 551.35,-772.04 551.35,-694.44 551.35,-694.44 551.35,-688.44 557.35,-682.44 563.35,-682.44 563.35,-682.44 808.65,-682.44 808.65,-682.44 814.65,-682.44 820.65,-688.44 820.65,-694.44 820.65,-694.44 820.65,-772.04 820.65,-772.04 820.65,-778.04 814.65,-784.04 808.65,-784.04"/>
<text xml:space="preserve" text-anchor="start" x="568.62" y="-755.24" font-family="Helvetica,sans-Serif" font-size="20.00">Сервер веб&#45;приложения</text>
<text xml:space="preserve" text-anchor="start" x="568.62" y="-739.99" font-family="Helvetica,sans-Serif" font-size="15.00"> </text>
<text xml:space="preserve" text-anchor="start" x="568.62" y="-724.99" font-family="Helvetica,sans-Serif" font-size="15.00">• web API</text>
<text xml:space="preserve" text-anchor="start" x="568.62" y="-709.99" font-family="Helvetica,sans-Serif" font-size="15.00">• auth</text>
<text xml:space="preserve" text-anchor="start" x="632.38" y="-694.99" font-family="Helvetica,sans-Serif" font-size="15.00">• business logic </text>
</g>
<!-- api -->
<g id="node5" class="node">
<title>api</title>
<path fill="#dcfce7" stroke="#4ade80" stroke-width="1.8" d="M755.03,-612.04C755.03,-612.04 616.97,-612.04 616.97,-612.04 610.97,-612.04 604.97,-606.04 604.97,-600.04 604.97,-600.04 604.97,-522.44 604.97,-522.44 604.97,-516.44 610.97,-510.44 616.97,-510.44 616.97,-510.44 755.03,-510.44 755.03,-510.44 761.03,-510.44 767.03,-516.44 767.03,-522.44 767.03,-522.44 767.03,-600.04 767.03,-600.04 767.03,-606.04 761.03,-612.04 755.03,-612.04"/>
<text xml:space="preserve" text-anchor="start" x="628.62" y="-583.24" font-family="Helvetica,sans-Serif" font-size="20.00">Backend API</text>
<text xml:space="preserve" text-anchor="start" x="622.25" y="-567.99" font-family="Helvetica,sans-Serif" font-size="15.00"> </text>
<text xml:space="preserve" text-anchor="start" x="622.25" y="-552.99" font-family="Helvetica,sans-Serif" font-size="15.00">• маршрутизация</text>
<text xml:space="preserve" text-anchor="start" x="622.25" y="-537.99" font-family="Helvetica,sans-Serif" font-size="15.00">• контекст собаки</text>
<text xml:space="preserve" text-anchor="start" x="633.88" y="-522.99" font-family="Helvetica,sans-Serif" font-size="15.00">• логирование </text>
</g>
<!-- adaptation_plan -->
<g id="node6" class="node">
<title>adaptation_plan</title>
<path fill="#fef3c7" stroke="#f59e0b" stroke-width="1.8" d="M1277.4,-460.54C1277.4,-460.54 1072.6,-460.54 1072.6,-460.54 1066.6,-460.54 1060.6,-454.54 1060.6,-448.54 1060.6,-448.54 1060.6,-355.94 1060.6,-355.94 1060.6,-349.94 1066.6,-343.94 1072.6,-343.94 1072.6,-343.94 1277.4,-343.94 1277.4,-343.94 1283.4,-343.94 1289.4,-349.94 1289.4,-355.94 1289.4,-355.94 1289.4,-448.54 1289.4,-448.54 1289.4,-454.54 1283.4,-460.54 1277.4,-460.54"/>
<text xml:space="preserve" text-anchor="start" x="1097.38" y="-431.74" font-family="Helvetica,sans-Serif" font-size="20.00">План адаптации</text>
<text xml:space="preserve" text-anchor="start" x="1077.88" y="-416.49" font-family="Helvetica,sans-Serif" font-size="15.00"> </text>
<text xml:space="preserve" text-anchor="start" x="1077.88" y="-401.49" font-family="Helvetica,sans-Serif" font-size="15.00">• LogisticRegression baseline</text>
<text xml:space="preserve" text-anchor="start" x="1077.88" y="-386.49" font-family="Helvetica,sans-Serif" font-size="15.00">• risk score</text>
<text xml:space="preserve" text-anchor="start" x="1077.88" y="-371.49" font-family="Helvetica,sans-Serif" font-size="15.00">• 1 / 7 / 30 / 90 дней</text>
<text xml:space="preserve" text-anchor="start" x="1111.25" y="-356.49" font-family="Helvetica,sans-Serif" font-size="15.00">• следующий шаг </text>
</g>
<!-- chatbot -->
<g id="node7" class="node">
<title>chatbot</title>
<path fill="#fce7f3" stroke="#ec4899" stroke-width="1.8" d="M1274.03,-633.04C1274.03,-633.04 1075.97,-633.04 1075.97,-633.04 1069.97,-633.04 1063.97,-627.04 1063.97,-621.04 1063.97,-621.04 1063.97,-543.44 1063.97,-543.44 1063.97,-537.44 1069.97,-531.44 1075.97,-531.44 1075.97,-531.44 1274.03,-531.44 1274.03,-531.44 1280.03,-531.44 1286.03,-537.44 1286.03,-543.44 1286.03,-543.44 1286.03,-621.04 1286.03,-621.04 1286.03,-627.04 1280.03,-633.04 1274.03,-633.04"/>
<text xml:space="preserve" text-anchor="start" x="1090.25" y="-604.24" font-family="Helvetica,sans-Serif" font-size="20.00">Модель 2: чат&#45;бот</text>
<text xml:space="preserve" text-anchor="start" x="1081.25" y="-588.99" font-family="Helvetica,sans-Serif" font-size="15.00"> </text>
<text xml:space="preserve" text-anchor="start" x="1081.25" y="-573.99" font-family="Helvetica,sans-Serif" font-size="15.00">• LLM + RAG</text>
<text xml:space="preserve" text-anchor="start" x="1081.25" y="-558.99" font-family="Helvetica,sans-Serif" font-size="15.00">• MongoDB knowledge base</text>
<text xml:space="preserve" text-anchor="start" x="1112.75" y="-543.99" font-family="Helvetica,sans-Serif" font-size="15.00">• safety guardrails </text>
</g>
<!-- db -->
<g id="node8" class="node">
<title>db</title>
<path fill="#f1f5f9" stroke="#64748b" stroke-width="1.8" d="M1692.28,-799.04C1692.28,-799.04 1543.72,-799.04 1543.72,-799.04 1537.72,-799.04 1531.72,-793.04 1531.72,-787.04 1531.72,-787.04 1531.72,-709.44 1531.72,-709.44 1531.72,-703.44 1537.72,-697.44 1543.72,-697.44 1543.72,-697.44 1692.28,-697.44 1692.28,-697.44 1698.28,-697.44 1704.28,-703.44 1704.28,-709.44 1704.28,-709.44 1704.28,-787.04 1704.28,-787.04 1704.28,-793.04 1698.28,-799.04 1692.28,-799.04"/>
<text xml:space="preserve" text-anchor="start" x="1566.25" y="-770.24" font-family="Helvetica,sans-Serif" font-size="20.00">Сервер БД</text>
<text xml:space="preserve" text-anchor="start" x="1549" y="-754.99" font-family="Helvetica,sans-Serif" font-size="15.00"> </text>
<text xml:space="preserve" text-anchor="start" x="1549" y="-739.99" font-family="Helvetica,sans-Serif" font-size="15.00">• PostgreSQL</text>
<text xml:space="preserve" text-anchor="start" x="1549" y="-724.99" font-family="Helvetica,sans-Serif" font-size="15.00">• профили собак</text>
<text xml:space="preserve" text-anchor="start" x="1549" y="-709.99" font-family="Helvetica,sans-Serif" font-size="15.00">• планы и прогресс </text>
</g>
<!-- model_store -->
<g id="node9" class="node">
<title>model_store</title>
<path fill="#ede9fe" stroke="#a78bfa" stroke-width="1.8" d="M1729.03,-281.04C1729.03,-281.04 1506.97,-281.04 1506.97,-281.04 1500.97,-281.04 1494.97,-275.04 1494.97,-269.04 1494.97,-269.04 1494.97,-191.44 1494.97,-191.44 1494.97,-185.44 1500.97,-179.44 1506.97,-179.44 1506.97,-179.44 1729.03,-179.44 1729.03,-179.44 1735.03,-179.44 1741.03,-185.44 1741.03,-191.44 1741.03,-191.44 1741.03,-269.04 1741.03,-269.04 1741.03,-275.04 1735.03,-281.04 1729.03,-281.04"/>
<text xml:space="preserve" text-anchor="start" x="1512.25" y="-252.24" font-family="Helvetica,sans-Serif" font-size="20.00">Хранение параметров</text>
<text xml:space="preserve" text-anchor="start" x="1512.25" y="-236.99" font-family="Helvetica,sans-Serif" font-size="15.00"> </text>
<text xml:space="preserve" text-anchor="start" x="1512.25" y="-221.99" font-family="Helvetica,sans-Serif" font-size="15.00">• model.pkl</text>
<text xml:space="preserve" text-anchor="start" x="1512.25" y="-206.99" font-family="Helvetica,sans-Serif" font-size="15.00">• feature schema</text>
<text xml:space="preserve" text-anchor="start" x="1577.12" y="-191.99" font-family="Helvetica,sans-Serif" font-size="15.00">• calibration </text>
</g>
<!-- data -->
<g id="node10" class="node">
<title>data</title>
<path fill="#f8fafc" stroke="#94a3b8" stroke-width="1.8" d="M1726.78,-454.04C1726.78,-454.04 1509.22,-454.04 1509.22,-454.04 1503.22,-454.04 1497.22,-448.04 1497.22,-442.04 1497.22,-442.04 1497.22,-364.44 1497.22,-364.44 1497.22,-358.44 1503.22,-352.44 1509.22,-352.44 1509.22,-352.44 1726.78,-352.44 1726.78,-352.44 1732.78,-352.44 1738.78,-358.44 1738.78,-364.44 1738.78,-364.44 1738.78,-442.04 1738.78,-442.04 1738.78,-448.04 1732.78,-454.04 1726.78,-454.04"/>
<text xml:space="preserve" text-anchor="start" x="1514.5" y="-425.24" font-family="Helvetica,sans-Serif" font-size="20.00">Данные для обучения</text>
<text xml:space="preserve" text-anchor="start" x="1514.5" y="-409.99" font-family="Helvetica,sans-Serif" font-size="15.00"> </text>
<text xml:space="preserve" text-anchor="start" x="1514.5" y="-394.99" font-family="Helvetica,sans-Serif" font-size="15.00">• C&#45;BARQ subsets</text>
<text xml:space="preserve" text-anchor="start" x="1514.5" y="-379.99" font-family="Helvetica,sans-Serif" font-size="15.00">• custdev</text>
<text xml:space="preserve" text-anchor="start" x="1545.62" y="-364.99" font-family="Helvetica,sans-Serif" font-size="15.00">• динамика ответов </text>
</g>
<!-- metrics -->
<g id="node11" class="node">
<title>metrics</title>
<path fill="#e0e7ff" stroke="#6366f1" stroke-width="1.8" d="M1718.9,-627.04C1718.9,-627.04 1517.1,-627.04 1517.1,-627.04 1511.1,-627.04 1505.1,-621.04 1505.1,-615.04 1505.1,-615.04 1505.1,-537.44 1505.1,-537.44 1505.1,-531.44 1511.1,-525.44 1517.1,-525.44 1517.1,-525.44 1718.9,-525.44 1718.9,-525.44 1724.9,-525.44 1730.9,-531.44 1730.9,-537.44 1730.9,-537.44 1730.9,-615.04 1730.9,-615.04 1730.9,-621.04 1724.9,-627.04 1718.9,-627.04"/>
<text xml:space="preserve" text-anchor="start" x="1522.38" y="-598.24" font-family="Helvetica,sans-Serif" font-size="20.00">Метрики и дашборд</text>
<text xml:space="preserve" text-anchor="start" x="1522.38" y="-582.99" font-family="Helvetica,sans-Serif" font-size="15.00"> </text>
<text xml:space="preserve" text-anchor="start" x="1522.38" y="-567.99" font-family="Helvetica,sans-Serif" font-size="15.00">• ROC&#45;AUC / PR&#45;AUC</text>
<text xml:space="preserve" text-anchor="start" x="1522.38" y="-552.99" font-family="Helvetica,sans-Serif" font-size="15.00">• Recall@k / CSAT</text>
<text xml:space="preserve" text-anchor="start" x="1560.25" y="-537.99" font-family="Helvetica,sans-Serif" font-size="15.00">• latency / safety </text>
</g>
<!-- incidents -->
<g id="node12" class="node">
<title>incidents</title>
<path fill="#fee2e2" stroke="#ef4444" stroke-width="1.8" d="M1744.03,-108.04C1744.03,-108.04 1491.97,-108.04 1491.97,-108.04 1485.97,-108.04 1479.97,-102.04 1479.97,-96.04 1479.97,-96.04 1479.97,-18.44 1479.97,-18.44 1479.97,-12.44 1485.97,-6.44 1491.97,-6.44 1491.97,-6.44 1744.03,-6.44 1744.03,-6.44 1750.03,-6.44 1756.03,-12.44 1756.03,-18.44 1756.03,-18.44 1756.03,-96.04 1756.03,-96.04 1756.03,-102.04 1750.03,-108.04 1744.03,-108.04"/>
<text xml:space="preserve" text-anchor="start" x="1497.25" y="-79.24" font-family="Helvetica,sans-Serif" font-size="20.00">Оповещения и багтрекер</text>
<text xml:space="preserve" text-anchor="start" x="1497.25" y="-63.99" font-family="Helvetica,sans-Serif" font-size="15.00"> </text>
<text xml:space="preserve" text-anchor="start" x="1497.25" y="-48.99" font-family="Helvetica,sans-Serif" font-size="15.00">• ошибки модели</text>
<text xml:space="preserve" text-anchor="start" x="1497.25" y="-33.99" font-family="Helvetica,sans-Serif" font-size="15.00">• data drift</text>
<text xml:space="preserve" text-anchor="start" x="1555.75" y="-18.99" font-family="Helvetica,sans-Serif" font-size="15.00">• prompt incidents </text>
</g>
</g>
</svg>
