<?xml version="1.0" encoding="UTF-8" standalone="no"?>
<!DOCTYPE svg PUBLIC "-//W3C//DTD SVG 1.1//EN"
 "http://www.w3.org/Graphics/SVG/1.1/DTD/svg11.dtd">
<!-- Generated by graphviz version 14.1.4 (20260321.0153)
 -->
<!-- Title: pet_adaptation_architecture_slide Pages: 1 -->
<svg width="1800pt" height="1120pt"
 viewBox="0.00 0.00 1800.00 1120.00" xmlns="http://www.w3.org/2000/svg" xmlns:xlink="http://www.w3.org/1999/xlink">
<g id="graph0" class="graph" transform="scale(0.900788 0.900788) rotate(0) translate(30 1203.15)">
<title>pet_adaptation_architecture_slide</title>
<g id="clust1" class="cluster">
<title>cluster_wireframe</title>
<path fill="none" stroke="none" stroke-width="0" d="M20,-20.67C20,-20.67 1918.25,-20.67 1918.25,-20.67 1924.25,-20.67 1930.25,-26.67 1930.25,-32.67 1930.25,-32.67 1930.25,-1130.28 1930.25,-1130.28 1930.25,-1136.28 1924.25,-1142.28 1918.25,-1142.28 1918.25,-1142.28 20,-1142.28 20,-1142.28 14,-1142.28 8,-1136.28 8,-1130.28 8,-1130.28 8,-32.67 8,-32.67 8,-26.67 14,-20.67 20,-20.67"/>
</g>
<g id="clust2" class="cluster">
<title>cluster_features</title>
</g>
<!-- w1&#45;&gt;w2 -->
<g id="edge1" class="edge">
<title>w1&#45;&gt;w2</title>
<path fill="none" stroke="#5b6b7d" stroke-width="1.8" d="M449.72,-604.03C564.02,-604.03 682.25,-604.03 682.25,-604.03 682.25,-604.03 682.25,-482.42 682.25,-482.42"/>
<polygon fill="#5b6b7d" stroke="#5b6b7d" stroke-width="1.8" points="684.88,-482.42 682.25,-474.92 679.63,-482.42 684.88,-482.42"/>
</g>
<!-- w1&#45;&gt;w7 -->
<g id="edge4" class="edge">
<title>w1&#45;&gt;w7</title>
<path fill="none" stroke="#5b6b7d" stroke-width="1.8" d="M449.82,-651.97C500.96,-651.97 541.25,-651.97 541.25,-651.97 541.25,-651.97 541.25,-788.14 541.25,-788.14"/>
<polygon fill="#5b6b7d" stroke="#5b6b7d" stroke-width="1.8" points="538.63,-788.14 541.25,-795.64 543.88,-788.14 538.63,-788.14"/>
</g>
<!-- w2&#45;&gt;w3 -->
<g id="edge2" class="edge">
<title>w2&#45;&gt;w3</title>
<path fill="none" stroke="#5b6b7d" stroke-width="1.8" d="M807.99,-385C807.99,-385 904.43,-385 904.43,-385"/>
<polygon fill="#5b6b7d" stroke="#5b6b7d" stroke-width="1.8" points="904.43,-387.63 911.93,-385 904.43,-382.38 904.43,-387.63"/>
</g>
<!-- w3&#45;&gt;w6 -->
<g id="edge3" class="edge">
<title>w3&#45;&gt;w6</title>
<path fill="none" stroke="#5b6b7d" stroke-width="1.8" d="M1209.46,-385C1209.46,-385 1274.03,-385 1274.03,-385"/>
<polygon fill="#5b6b7d" stroke="#5b6b7d" stroke-width="1.8" points="1274.03,-387.63 1281.53,-385 1274.03,-382.38 1274.03,-387.63"/>
</g>
<!-- w6&#45;&gt;w4 -->
<g id="edge5" class="edge">
<title>w6&#45;&gt;w4</title>
<path fill="none" stroke="#5b6b7d" stroke-width="1.8" d="M1518.04,-378.19C1518.04,-378.19 1600.96,-378.19 1600.96,-378.19"/>
<polygon fill="#5b6b7d" stroke="#5b6b7d" stroke-width="1.8" points="1600.96,-380.81 1608.46,-378.19 1600.96,-375.56 1600.96,-380.81"/>
<text xml:space="preserve" text-anchor="middle" x="1621" y="-375.15" font-family="Helvetica,sans-Serif" font-size="18.00" fill="#475569">доступ открыт</text>
</g>
<!-- w6&#45;&gt;w5 -->
<g id="edge6" class="edge">
<title>w6&#45;&gt;w5</title>
<path fill="none" stroke="#5b6b7d" stroke-width="1.8" d="M1518.46,-450.09C1562.57,-450.09 1602.25,-450.09 1602.25,-450.09 1602.25,-450.09 1602.25,-758.98 1602.25,-758.98"/>
<polygon fill="#5b6b7d" stroke="#5b6b7d" stroke-width="1.8" points="1599.63,-758.98 1602.25,-766.48 1604.88,-758.98 1599.63,-758.98"/>
<text xml:space="preserve" text-anchor="middle" x="1540.75" y="-545.54" font-family="Helvetica,sans-Serif" font-size="18.00" fill="#475569">доступ открыт</text>
</g>
<!-- w4&#45;&gt;w5 -->
<!-- w1 -->
<g id="node1" class="node">
<title>w1</title>
<path fill="#e0f2fe" stroke="#38bdf8" stroke-width="2" d="M436.85,-699.9C436.85,-699.9 41.65,-699.9 41.65,-699.9 35.65,-699.9 29.65,-693.9 29.65,-687.9 29.65,-687.9 29.65,-568.1 29.65,-568.1 29.65,-562.1 35.65,-556.1 41.65,-556.1 41.65,-556.1 436.85,-556.1 436.85,-556.1 442.85,-556.1 448.85,-562.1 448.85,-568.1 448.85,-568.1 448.85,-687.9 448.85,-687.9 448.85,-693.9 442.85,-699.9 436.85,-699.9"/>
<text xml:space="preserve" text-anchor="start" x="208.88" y="-661.7" font-family="Helvetica,sans-Serif" font-weight="bold" font-size="24.00">Вход</text>
<text xml:space="preserve" text-anchor="start" x="167.62" y="-636" font-family="Helvetica,sans-Serif" font-size="24.00" fill="#475569">&#45; &#45; &#45; &#45; &#45; &#45; &#45; &#45; &#45; &#45;</text>
<text xml:space="preserve" text-anchor="start" x="53.25" y="-607.25" font-family="Helvetica,sans-Serif" font-size="24.00">• Magic link</text>
<text xml:space="preserve" text-anchor="start" x="53.25" y="-578.5" font-family="Helvetica,sans-Serif" font-size="24.00">• Согласие на обработку данных</text>
</g>
<!-- w2 -->
<g id="node2" class="node">
<title>w2</title>
<path fill="#dbeafe" stroke="#60a5fa" stroke-width="2" d="M795.1,-471.27C795.1,-471.27 569.4,-471.27 569.4,-471.27 563.4,-471.27 557.4,-465.27 557.4,-459.27 557.4,-459.27 557.4,-310.73 557.4,-310.73 557.4,-304.73 563.4,-298.73 569.4,-298.73 569.4,-298.73 795.1,-298.73 795.1,-298.73 801.1,-298.73 807.1,-304.73 807.1,-310.73 807.1,-310.73 807.1,-459.27 807.1,-459.27 807.1,-465.27 801.1,-471.27 795.1,-471.27"/>
<text xml:space="preserve" text-anchor="start" x="629.75" y="-433.07" font-family="Helvetica,sans-Serif" font-weight="bold" font-size="24.00">Питомец</text>
<text xml:space="preserve" text-anchor="start" x="610.62" y="-407.38" font-family="Helvetica,sans-Serif" font-size="24.00" fill="#475569">&#45; &#45; &#45; &#45; &#45; &#45; &#45; &#45; &#45; &#45;</text>
<text xml:space="preserve" text-anchor="start" x="581" y="-378.62" font-family="Helvetica,sans-Serif" font-size="24.00">• Возраст, порода</text>
<text xml:space="preserve" text-anchor="start" x="581" y="-349.88" font-family="Helvetica,sans-Serif" font-size="24.00">• Особенности</text>
<text xml:space="preserve" text-anchor="start" x="581" y="-321.12" font-family="Helvetica,sans-Serif" font-size="24.00">• Фото</text>
</g>
<!-- w3 -->
<g id="node3" class="node">
<title>w3</title>
<path fill="#dcfce7" stroke="#4ade80" stroke-width="2" d="M1196.85,-471.27C1196.85,-471.27 927.65,-471.27 927.65,-471.27 921.65,-471.27 915.65,-465.27 915.65,-459.27 915.65,-459.27 915.65,-310.73 915.65,-310.73 915.65,-304.73 921.65,-298.73 927.65,-298.73 927.65,-298.73 1196.85,-298.73 1196.85,-298.73 1202.85,-298.73 1208.85,-304.73 1208.85,-310.73 1208.85,-310.73 1208.85,-459.27 1208.85,-459.27 1208.85,-465.27 1202.85,-471.27 1196.85,-471.27"/>
<text xml:space="preserve" text-anchor="start" x="939.25" y="-433.07" font-family="Helvetica,sans-Serif" font-weight="bold" font-size="24.00">Оценка (ML модель)</text>
<text xml:space="preserve" text-anchor="start" x="990.62" y="-407.38" font-family="Helvetica,sans-Serif" font-size="24.00" fill="#475569">&#45; &#45; &#45; &#45; &#45; &#45; &#45; &#45; &#45; &#45;</text>
<text xml:space="preserve" text-anchor="start" x="939.25" y="-378.62" font-family="Helvetica,sans-Serif" font-size="24.00">• Risk score</text>
<text xml:space="preserve" text-anchor="start" x="939.25" y="-349.88" font-family="Helvetica,sans-Serif" font-size="24.00">• Сложные зоны</text>
<text xml:space="preserve" text-anchor="start" x="939.25" y="-321.12" font-family="Helvetica,sans-Serif" font-size="24.00">• Объяснение весов</text>
</g>
<!-- w6 -->
<g id="node4" class="node">
<title>w6</title>
<path fill="#ccfbf1" stroke="#2dd4bf" stroke-width="2" d="M1505.47,-456.9C1505.47,-456.9 1297.03,-456.9 1297.03,-456.9 1291.03,-456.9 1285.03,-450.9 1285.03,-444.9 1285.03,-444.9 1285.03,-325.1 1285.03,-325.1 1285.03,-319.1 1291.03,-313.1 1297.03,-313.1 1297.03,-313.1 1505.47,-313.1 1505.47,-313.1 1511.47,-313.1 1517.47,-319.1 1517.47,-325.1 1517.47,-325.1 1517.47,-444.9 1517.47,-444.9 1517.47,-450.9 1511.47,-456.9 1505.47,-456.9"/>
<text xml:space="preserve" text-anchor="start" x="1357" y="-418.7" font-family="Helvetica,sans-Serif" font-weight="bold" font-size="24.00">Оплата</text>
<text xml:space="preserve" text-anchor="start" x="1329.62" y="-393" font-family="Helvetica,sans-Serif" font-size="24.00" fill="#475569">&#45; &#45; &#45; &#45; &#45; &#45; &#45; &#45; &#45; &#45;</text>
<text xml:space="preserve" text-anchor="start" x="1308.62" y="-364.25" font-family="Helvetica,sans-Serif" font-size="24.00">• Подписка</text>
<text xml:space="preserve" text-anchor="start" x="1308.62" y="-335.5" font-family="Helvetica,sans-Serif" font-size="24.00">• 7 / 30 / 90 дней</text>
</g>
<!-- w4 -->
<g id="node5" class="node">
<title>w4</title>
<path fill="#fef3c7" stroke="#f59e0b" stroke-width="2" d="M1854.35,-443.27C1854.35,-443.27 1624.15,-443.27 1624.15,-443.27 1618.15,-443.27 1612.15,-437.27 1612.15,-431.27 1612.15,-431.27 1612.15,-282.73 1612.15,-282.73 1612.15,-276.73 1618.15,-270.73 1624.15,-270.73 1624.15,-270.73 1854.35,-270.73 1854.35,-270.73 1860.35,-270.73 1866.35,-276.73 1866.35,-282.73 1866.35,-282.73 1866.35,-431.27 1866.35,-431.27 1866.35,-437.27 1860.35,-443.27 1854.35,-443.27"/>
<text xml:space="preserve" text-anchor="start" x="1708.5" y="-405.07" font-family="Helvetica,sans-Serif" font-weight="bold" font-size="24.00">План</text>
<text xml:space="preserve" text-anchor="start" x="1667.62" y="-379.38" font-family="Helvetica,sans-Serif" font-size="24.00" fill="#475569">&#45; &#45; &#45; &#45; &#45; &#45; &#45; &#45; &#45; &#45;</text>
<text xml:space="preserve" text-anchor="start" x="1635.75" y="-350.62" font-family="Helvetica,sans-Serif" font-size="24.00">• День 1&#45;7 / 30 / 90</text>
<text xml:space="preserve" text-anchor="start" x="1635.75" y="-321.88" font-family="Helvetica,sans-Serif" font-size="24.00">• Задачи</text>
<text xml:space="preserve" text-anchor="start" x="1635.75" y="-293.12" font-family="Helvetica,sans-Serif" font-size="24.00">• Напоминания</text>
</g>
<!-- w5 -->
<g id="node6" class="node">
<title>w5</title>
<path fill="#fce7f3" stroke="#f472b6" stroke-width="2" d="M1873.85,-913.9C1873.85,-913.9 1604.65,-913.9 1604.65,-913.9 1598.65,-913.9 1592.65,-907.9 1592.65,-901.9 1592.65,-901.9 1592.65,-782.1 1592.65,-782.1 1592.65,-776.1 1598.65,-770.1 1604.65,-770.1 1604.65,-770.1 1873.85,-770.1 1873.85,-770.1 1879.85,-770.1 1885.85,-776.1 1885.85,-782.1 1885.85,-782.1 1885.85,-901.9 1885.85,-901.9 1885.85,-907.9 1879.85,-913.9 1873.85,-913.9"/>
<text xml:space="preserve" text-anchor="start" x="1616.25" y="-875.7" font-family="Helvetica,sans-Serif" font-weight="bold" font-size="24.00">Чат&#45;бот (LLM + RAG)</text>
<text xml:space="preserve" text-anchor="start" x="1667.62" y="-850" font-family="Helvetica,sans-Serif" font-size="24.00" fill="#475569">&#45; &#45; &#45; &#45; &#45; &#45; &#45; &#45; &#45; &#45;</text>
<text xml:space="preserve" text-anchor="start" x="1616.25" y="-821.25" font-family="Helvetica,sans-Serif" font-size="24.00">• Вопрос</text>
<text xml:space="preserve" text-anchor="start" x="1616.25" y="-792.5" font-family="Helvetica,sans-Serif" font-size="24.00">• Ответ по контексту</text>
</g>
<!-- w7 -->
<g id="node7" class="node">
<title>w7</title>
<path fill="#e0f2fe" stroke="#38bdf8" stroke-width="2" d="M827.35,-942.9C827.35,-942.9 537.15,-942.9 537.15,-942.9 531.15,-942.9 525.15,-936.9 525.15,-930.9 525.15,-930.9 525.15,-811.1 525.15,-811.1 525.15,-805.1 531.15,-799.1 537.15,-799.1 537.15,-799.1 827.35,-799.1 827.35,-799.1 833.35,-799.1 839.35,-805.1 839.35,-811.1 839.35,-811.1 839.35,-930.9 839.35,-930.9 839.35,-936.9 833.35,-942.9 827.35,-942.9"/>
<text xml:space="preserve" text-anchor="start" x="608" y="-904.7" font-family="Helvetica,sans-Serif" font-weight="bold" font-size="24.00">База знаний</text>
<text xml:space="preserve" text-anchor="start" x="610.62" y="-879" font-family="Helvetica,sans-Serif" font-size="24.00" fill="#475569">&#45; &#45; &#45; &#45; &#45; &#45; &#45; &#45; &#45; &#45;</text>
<text xml:space="preserve" text-anchor="start" x="548.75" y="-850.25" font-family="Helvetica,sans-Serif" font-size="24.00">• Статьи</text>
<text xml:space="preserve" text-anchor="start" x="548.75" y="-821.5" font-family="Helvetica,sans-Serif" font-size="24.00">• Практические советы</text>
</g>
</g>
</svg>
